<mxfile host="app.diagrams.net" agent="Mozilla/5.0 (Windows NT 10.0; Win64; x64) AppleWebKit/537.36 (KHTML, like Gecko) Chrome/131.0.0.0 Safari/537.36" version="25.0.3">
  <diagram name="Sida-1" id="yMFKIoc-D7ovUgNksrX6">
    <mxGraphModel dx="1247" dy="671" grid="1" gridSize="10" guides="1" tooltips="1" connect="1" arrows="1" fold="1" page="1" pageScale="1" pageWidth="827" pageHeight="1169" math="0" shadow="0">
      <root>
        <mxCell id="0" />
        <mxCell id="1" parent="0" />
        <mxCell id="Edmqxcgecc5LKQphc_h1-5" value="Player" style="swimlane;fontStyle=0;childLayout=stackLayout;horizontal=1;startSize=26;fillColor=none;horizontalStack=0;resizeParent=1;resizeParentMax=0;resizeLast=0;collapsible=1;marginBottom=0;whiteSpace=wrap;html=1;" parent="1" vertex="1">
          <mxGeometry x="230" y="220" width="170" height="90" as="geometry" />
        </mxCell>
        <mxCell id="Edmqxcgecc5LKQphc_h1-40" value="The user uses the player to interact with the game. Holds the players stats like hunger and thirst, etc." style="text;html=1;align=center;verticalAlign=middle;whiteSpace=wrap;rounded=0;" parent="Edmqxcgecc5LKQphc_h1-5" vertex="1">
          <mxGeometry y="26" width="170" height="64" as="geometry" />
        </mxCell>
        <mxCell id="Edmqxcgecc5LKQphc_h1-6" value="Inventory" style="swimlane;fontStyle=0;childLayout=stackLayout;horizontal=1;startSize=26;fillColor=none;horizontalStack=0;resizeParent=1;resizeParentMax=0;resizeLast=0;collapsible=1;marginBottom=0;whiteSpace=wrap;html=1;" parent="1" vertex="1">
          <mxGeometry x="230" y="50" width="170" height="90" as="geometry" />
        </mxCell>
        <mxCell id="Edmqxcgecc5LKQphc_h1-41" value="Holds the players different items, like seeds, tools, etc." style="text;html=1;align=center;verticalAlign=middle;whiteSpace=wrap;rounded=0;" parent="Edmqxcgecc5LKQphc_h1-6" vertex="1">
          <mxGeometry y="26" width="170" height="64" as="geometry" />
        </mxCell>
        <mxCell id="Pf9NA05062R23ux8nu3v-22" style="edgeStyle=orthogonalEdgeStyle;rounded=0;orthogonalLoop=1;jettySize=auto;html=1;entryX=0.5;entryY=1;entryDx=0;entryDy=0;" edge="1" parent="1" source="Edmqxcgecc5LKQphc_h1-7" target="Edmqxcgecc5LKQphc_h1-40">
          <mxGeometry relative="1" as="geometry" />
        </mxCell>
        <mxCell id="Edmqxcgecc5LKQphc_h1-7" value="World&amp;nbsp;" style="swimlane;fontStyle=0;childLayout=stackLayout;horizontal=1;startSize=26;fillColor=none;horizontalStack=0;resizeParent=1;resizeParentMax=0;resizeLast=0;collapsible=1;marginBottom=0;whiteSpace=wrap;html=1;" parent="1" vertex="1">
          <mxGeometry x="230" y="410" width="170" height="90" as="geometry" />
        </mxCell>
        <mxCell id="Edmqxcgecc5LKQphc_h1-31" value="Contains all tiles of the world and controls weather, time of day, etc.&amp;nbsp;" style="text;html=1;align=center;verticalAlign=middle;whiteSpace=wrap;rounded=0;" parent="Edmqxcgecc5LKQphc_h1-7" vertex="1">
          <mxGeometry y="26" width="170" height="64" as="geometry" />
        </mxCell>
        <mxCell id="Edmqxcgecc5LKQphc_h1-8" value="Tile" style="swimlane;fontStyle=0;childLayout=stackLayout;horizontal=1;startSize=26;fillColor=none;horizontalStack=0;resizeParent=1;resizeParentMax=0;resizeLast=0;collapsible=1;marginBottom=0;whiteSpace=wrap;html=1;" parent="1" vertex="1">
          <mxGeometry x="230" y="560" width="170" height="90" as="geometry" />
        </mxCell>
        <mxCell id="Edmqxcgecc5LKQphc_h1-32" value="There are different types of tiles that holds a crop or object" style="text;html=1;align=center;verticalAlign=middle;whiteSpace=wrap;rounded=0;" parent="Edmqxcgecc5LKQphc_h1-8" vertex="1">
          <mxGeometry y="26" width="170" height="64" as="geometry" />
        </mxCell>
        <mxCell id="Edmqxcgecc5LKQphc_h1-14" value="Tools" style="swimlane;fontStyle=0;childLayout=stackLayout;horizontal=1;startSize=26;fillColor=none;horizontalStack=0;resizeParent=1;resizeParentMax=0;resizeLast=0;collapsible=1;marginBottom=0;whiteSpace=wrap;html=1;" parent="1" vertex="1">
          <mxGeometry x="480" y="220" width="170" height="90" as="geometry" />
        </mxCell>
        <mxCell id="Edmqxcgecc5LKQphc_h1-39" value="The player uses tools to interact with the world.&amp;nbsp;" style="text;html=1;align=center;verticalAlign=middle;whiteSpace=wrap;rounded=0;" parent="Edmqxcgecc5LKQphc_h1-14" vertex="1">
          <mxGeometry y="26" width="170" height="64" as="geometry" />
        </mxCell>
        <mxCell id="Edmqxcgecc5LKQphc_h1-33" value="Objects" style="swimlane;fontStyle=0;childLayout=stackLayout;horizontal=1;startSize=26;fillColor=none;horizontalStack=0;resizeParent=1;resizeParentMax=0;resizeLast=0;collapsible=1;marginBottom=0;whiteSpace=wrap;html=1;" parent="1" vertex="1">
          <mxGeometry x="470" y="700" width="170" height="90" as="geometry" />
        </mxCell>
        <mxCell id="Edmqxcgecc5LKQphc_h1-34" value="DIfferent types of objects which can be on tiles. Rocks, trees, etc." style="text;html=1;align=center;verticalAlign=middle;whiteSpace=wrap;rounded=0;" parent="Edmqxcgecc5LKQphc_h1-33" vertex="1">
          <mxGeometry y="26" width="170" height="64" as="geometry" />
        </mxCell>
        <mxCell id="Edmqxcgecc5LKQphc_h1-64" value="" style="endArrow=classic;html=1;rounded=0;" parent="1" source="Edmqxcgecc5LKQphc_h1-7" target="Edmqxcgecc5LKQphc_h1-8" edge="1">
          <mxGeometry relative="1" as="geometry">
            <mxPoint x="250" y="530" as="sourcePoint" />
            <mxPoint x="410" y="530" as="targetPoint" />
          </mxGeometry>
        </mxCell>
        <mxCell id="Edmqxcgecc5LKQphc_h1-66" value="1" style="edgeLabel;resizable=0;html=1;;align=left;verticalAlign=bottom;" parent="Edmqxcgecc5LKQphc_h1-64" connectable="0" vertex="1">
          <mxGeometry x="-1" relative="1" as="geometry">
            <mxPoint x="5" y="20" as="offset" />
          </mxGeometry>
        </mxCell>
        <mxCell id="Edmqxcgecc5LKQphc_h1-67" value="1..*" style="edgeLabel;resizable=0;html=1;;align=right;verticalAlign=bottom;" parent="Edmqxcgecc5LKQphc_h1-64" connectable="0" vertex="1">
          <mxGeometry x="1" relative="1" as="geometry">
            <mxPoint x="25" as="offset" />
          </mxGeometry>
        </mxCell>
        <mxCell id="Edmqxcgecc5LKQphc_h1-85" value="" style="endArrow=classic;html=1;rounded=0;" parent="1" source="Edmqxcgecc5LKQphc_h1-5" target="Edmqxcgecc5LKQphc_h1-14" edge="1">
          <mxGeometry relative="1" as="geometry">
            <mxPoint x="460" y="370" as="sourcePoint" />
            <mxPoint x="620" y="370" as="targetPoint" />
          </mxGeometry>
        </mxCell>
        <mxCell id="Edmqxcgecc5LKQphc_h1-87" value="1" style="edgeLabel;resizable=0;html=1;;align=left;verticalAlign=bottom;" parent="Edmqxcgecc5LKQphc_h1-85" connectable="0" vertex="1">
          <mxGeometry x="-1" relative="1" as="geometry">
            <mxPoint as="offset" />
          </mxGeometry>
        </mxCell>
        <mxCell id="Edmqxcgecc5LKQphc_h1-88" value="1..*" style="edgeLabel;resizable=0;html=1;;align=right;verticalAlign=bottom;" parent="Edmqxcgecc5LKQphc_h1-85" connectable="0" vertex="1">
          <mxGeometry x="1" relative="1" as="geometry">
            <mxPoint x="-10" y="-5" as="offset" />
          </mxGeometry>
        </mxCell>
        <mxCell id="Edmqxcgecc5LKQphc_h1-97" value="Item" style="swimlane;fontStyle=0;childLayout=stackLayout;horizontal=1;startSize=26;fillColor=#d5e8d4;horizontalStack=0;resizeParent=1;resizeParentMax=0;resizeLast=0;collapsible=1;marginBottom=0;whiteSpace=wrap;html=1;strokeColor=#82b366;" parent="1" vertex="1">
          <mxGeometry x="750" y="215" width="170" height="100" as="geometry" />
        </mxCell>
        <mxCell id="Edmqxcgecc5LKQphc_h1-98" value="A stackableItem can either be in an inventoryHandler or dropped on the ground. Items of the same type are interchangeable" style="text;html=1;align=center;verticalAlign=middle;whiteSpace=wrap;rounded=0;" parent="Edmqxcgecc5LKQphc_h1-97" vertex="1">
          <mxGeometry y="26" width="170" height="74" as="geometry" />
        </mxCell>
        <mxCell id="Edmqxcgecc5LKQphc_h1-103" value="" style="endArrow=classic;html=1;rounded=0;" parent="1" source="Edmqxcgecc5LKQphc_h1-5" target="Edmqxcgecc5LKQphc_h1-6" edge="1">
          <mxGeometry relative="1" as="geometry">
            <mxPoint x="500" y="140" as="sourcePoint" />
            <mxPoint x="660" y="140" as="targetPoint" />
          </mxGeometry>
        </mxCell>
        <mxCell id="Edmqxcgecc5LKQphc_h1-105" value="1" style="edgeLabel;resizable=0;html=1;;align=left;verticalAlign=bottom;" parent="Edmqxcgecc5LKQphc_h1-103" connectable="0" vertex="1">
          <mxGeometry x="-1" relative="1" as="geometry" />
        </mxCell>
        <mxCell id="Edmqxcgecc5LKQphc_h1-106" value="1" style="edgeLabel;resizable=0;html=1;;align=right;verticalAlign=bottom;" parent="Edmqxcgecc5LKQphc_h1-103" connectable="0" vertex="1">
          <mxGeometry x="1" relative="1" as="geometry">
            <mxPoint x="-5" y="20" as="offset" />
          </mxGeometry>
        </mxCell>
        <mxCell id="Edmqxcgecc5LKQphc_h1-111" value="" style="endArrow=classic;html=1;rounded=0;" parent="1" source="Edmqxcgecc5LKQphc_h1-6" target="Edmqxcgecc5LKQphc_h1-97" edge="1">
          <mxGeometry relative="1" as="geometry">
            <mxPoint x="660" y="70" as="sourcePoint" />
            <mxPoint x="820" y="70" as="targetPoint" />
          </mxGeometry>
        </mxCell>
        <mxCell id="Edmqxcgecc5LKQphc_h1-113" value="1" style="edgeLabel;resizable=0;html=1;;align=left;verticalAlign=bottom;" parent="Edmqxcgecc5LKQphc_h1-111" connectable="0" vertex="1">
          <mxGeometry x="-1" relative="1" as="geometry" />
        </mxCell>
        <mxCell id="Edmqxcgecc5LKQphc_h1-114" value="0..*" style="edgeLabel;resizable=0;html=1;;align=right;verticalAlign=bottom;" parent="Edmqxcgecc5LKQphc_h1-111" connectable="0" vertex="1">
          <mxGeometry x="1" relative="1" as="geometry">
            <mxPoint x="-10" y="24" as="offset" />
          </mxGeometry>
        </mxCell>
        <mxCell id="Pf9NA05062R23ux8nu3v-1" value="" style="edgeStyle=orthogonalEdgeStyle;rounded=0;orthogonalLoop=1;jettySize=auto;html=1;" edge="1" parent="1" target="Edmqxcgecc5LKQphc_h1-41">
          <mxGeometry relative="1" as="geometry">
            <mxPoint x="315" y="220" as="sourcePoint" />
          </mxGeometry>
        </mxCell>
        <mxCell id="Pf9NA05062R23ux8nu3v-4" value="Terrain" style="swimlane;fontStyle=0;childLayout=stackLayout;horizontal=1;startSize=26;fillColor=none;horizontalStack=0;resizeParent=1;resizeParentMax=0;resizeLast=0;collapsible=1;marginBottom=0;whiteSpace=wrap;html=1;" vertex="1" parent="1">
          <mxGeometry x="230" y="700" width="170" height="86" as="geometry" />
        </mxCell>
        <mxCell id="Pf9NA05062R23ux8nu3v-30" style="edgeStyle=orthogonalEdgeStyle;rounded=0;orthogonalLoop=1;jettySize=auto;html=1;" edge="1" parent="Pf9NA05062R23ux8nu3v-4" source="Pf9NA05062R23ux8nu3v-28">
          <mxGeometry relative="1" as="geometry">
            <mxPoint x="230" y="56" as="targetPoint" />
          </mxGeometry>
        </mxCell>
        <mxCell id="Pf9NA05062R23ux8nu3v-28" value="&lt;div style=&quot;&quot;&gt;Tiles can have different&amp;nbsp;&lt;/div&gt;&lt;div style=&quot;&quot;&gt;types of terrain: grass,&amp;nbsp;&lt;/div&gt;&lt;div style=&quot;&quot;&gt;dirt, plantable dirt&lt;/div&gt;" style="text;html=1;align=left;verticalAlign=middle;resizable=0;points=[];autosize=1;strokeColor=none;fillColor=none;" vertex="1" parent="Pf9NA05062R23ux8nu3v-4">
          <mxGeometry y="26" width="170" height="60" as="geometry" />
        </mxCell>
        <mxCell id="Pf9NA05062R23ux8nu3v-26" value="Interagerar" style="text;html=1;align=center;verticalAlign=middle;resizable=0;points=[];autosize=1;strokeColor=none;fillColor=none;" vertex="1" parent="1">
          <mxGeometry x="380" y="328" width="80" height="30" as="geometry" />
        </mxCell>
        <mxCell id="Pf9NA05062R23ux8nu3v-29" style="edgeStyle=orthogonalEdgeStyle;rounded=0;orthogonalLoop=1;jettySize=auto;html=1;entryX=0.5;entryY=0;entryDx=0;entryDy=0;" edge="1" parent="1" source="Edmqxcgecc5LKQphc_h1-32" target="Pf9NA05062R23ux8nu3v-4">
          <mxGeometry relative="1" as="geometry" />
        </mxCell>
        <mxCell id="Pf9NA05062R23ux8nu3v-34" value="1" style="text;html=1;align=center;verticalAlign=middle;resizable=0;points=[];autosize=1;strokeColor=none;fillColor=none;" vertex="1" parent="1">
          <mxGeometry x="310" y="648" width="30" height="30" as="geometry" />
        </mxCell>
        <mxCell id="Pf9NA05062R23ux8nu3v-35" value="1" style="text;html=1;align=center;verticalAlign=middle;resizable=0;points=[];autosize=1;strokeColor=none;fillColor=none;" vertex="1" parent="1">
          <mxGeometry x="310" y="678" width="30" height="30" as="geometry" />
        </mxCell>
        <mxCell id="Pf9NA05062R23ux8nu3v-37" value="1" style="text;html=1;align=center;verticalAlign=middle;resizable=0;points=[];autosize=1;strokeColor=none;fillColor=none;" vertex="1" parent="1">
          <mxGeometry x="395" y="758" width="30" height="30" as="geometry" />
        </mxCell>
        <mxCell id="Pf9NA05062R23ux8nu3v-38" value="0..1" style="text;html=1;align=center;verticalAlign=middle;resizable=0;points=[];autosize=1;strokeColor=none;fillColor=none;" vertex="1" parent="1">
          <mxGeometry x="440" y="758" width="40" height="30" as="geometry" />
        </mxCell>
        <mxCell id="Pf9NA05062R23ux8nu3v-39" value="1" style="text;html=1;align=center;verticalAlign=middle;resizable=0;points=[];autosize=1;strokeColor=none;fillColor=none;" vertex="1" parent="1">
          <mxGeometry x="285" y="378" width="30" height="30" as="geometry" />
        </mxCell>
        <mxCell id="Pf9NA05062R23ux8nu3v-40" value="1" style="text;html=1;align=center;verticalAlign=middle;resizable=0;points=[];autosize=1;strokeColor=none;fillColor=none;" vertex="1" parent="1">
          <mxGeometry x="285" y="308" width="30" height="30" as="geometry" />
        </mxCell>
        <mxCell id="XgasXNfYy0nCk-x9ioHG-2" value="" style="endArrow=classic;html=1;rounded=0;" edge="1" parent="1" source="Edmqxcgecc5LKQphc_h1-7" target="Edmqxcgecc5LKQphc_h1-14">
          <mxGeometry relative="1" as="geometry">
            <mxPoint x="540" y="510" as="sourcePoint" />
            <mxPoint x="700" y="510" as="targetPoint" />
            <Array as="points">
              <mxPoint x="480" y="400" />
            </Array>
          </mxGeometry>
        </mxCell>
        <mxCell id="XgasXNfYy0nCk-x9ioHG-4" value="1" style="edgeLabel;resizable=0;html=1;;align=left;verticalAlign=bottom;" connectable="0" vertex="1" parent="XgasXNfYy0nCk-x9ioHG-2">
          <mxGeometry x="-1" relative="1" as="geometry">
            <mxPoint x="10" y="13" as="offset" />
          </mxGeometry>
        </mxCell>
        <mxCell id="XgasXNfYy0nCk-x9ioHG-5" value="0..*" style="edgeLabel;resizable=0;html=1;;align=right;verticalAlign=bottom;" connectable="0" vertex="1" parent="XgasXNfYy0nCk-x9ioHG-2">
          <mxGeometry x="1" relative="1" as="geometry">
            <mxPoint x="23" y="20" as="offset" />
          </mxGeometry>
        </mxCell>
        <mxCell id="XgasXNfYy0nCk-x9ioHG-7" value="" style="endArrow=classic;html=1;rounded=0;" edge="1" parent="1" source="Edmqxcgecc5LKQphc_h1-14" target="Edmqxcgecc5LKQphc_h1-7">
          <mxGeometry relative="1" as="geometry">
            <mxPoint x="430" y="400" as="sourcePoint" />
            <mxPoint x="590" y="400" as="targetPoint" />
          </mxGeometry>
        </mxCell>
        <mxCell id="XgasXNfYy0nCk-x9ioHG-9" value="1..*" style="edgeLabel;resizable=0;html=1;;align=left;verticalAlign=bottom;" connectable="0" vertex="1" parent="XgasXNfYy0nCk-x9ioHG-7">
          <mxGeometry x="-1" relative="1" as="geometry">
            <mxPoint x="-46" y="20" as="offset" />
          </mxGeometry>
        </mxCell>
        <mxCell id="XgasXNfYy0nCk-x9ioHG-10" value="1" style="edgeLabel;resizable=0;html=1;;align=right;verticalAlign=bottom;" connectable="0" vertex="1" parent="XgasXNfYy0nCk-x9ioHG-7">
          <mxGeometry x="1" relative="1" as="geometry" />
        </mxCell>
        <mxCell id="XgasXNfYy0nCk-x9ioHG-11" value="" style="endArrow=classic;html=1;rounded=0;" edge="1" parent="1" source="Edmqxcgecc5LKQphc_h1-97" target="Edmqxcgecc5LKQphc_h1-7">
          <mxGeometry relative="1" as="geometry">
            <mxPoint x="480" y="350" as="sourcePoint" />
            <mxPoint x="680" y="350" as="targetPoint" />
            <Array as="points">
              <mxPoint x="590" y="440" />
            </Array>
          </mxGeometry>
        </mxCell>
        <mxCell id="XgasXNfYy0nCk-x9ioHG-13" value="1" style="edgeLabel;resizable=0;html=1;;align=left;verticalAlign=bottom;" connectable="0" vertex="1" parent="XgasXNfYy0nCk-x9ioHG-11">
          <mxGeometry x="-1" relative="1" as="geometry">
            <mxPoint x="-355" y="155" as="offset" />
          </mxGeometry>
        </mxCell>
        <mxCell id="XgasXNfYy0nCk-x9ioHG-14" value="0..*" style="edgeLabel;resizable=0;html=1;;align=right;verticalAlign=bottom;" connectable="0" vertex="1" parent="XgasXNfYy0nCk-x9ioHG-11">
          <mxGeometry x="1" relative="1" as="geometry">
            <mxPoint x="340" y="-130" as="offset" />
          </mxGeometry>
        </mxCell>
        <mxCell id="XgasXNfYy0nCk-x9ioHG-15" value="" style="endArrow=classic;html=1;rounded=0;" edge="1" parent="1" source="Edmqxcgecc5LKQphc_h1-7" target="Edmqxcgecc5LKQphc_h1-97">
          <mxGeometry relative="1" as="geometry">
            <mxPoint x="580" y="410" as="sourcePoint" />
            <mxPoint x="740" y="410" as="targetPoint" />
            <Array as="points">
              <mxPoint x="470" y="500" />
              <mxPoint x="730" y="440" />
            </Array>
          </mxGeometry>
        </mxCell>
        <mxCell id="XgasXNfYy0nCk-x9ioHG-17" value="1" style="edgeLabel;resizable=0;html=1;;align=left;verticalAlign=bottom;" connectable="0" vertex="1" parent="XgasXNfYy0nCk-x9ioHG-15">
          <mxGeometry x="-1" relative="1" as="geometry">
            <mxPoint y="20" as="offset" />
          </mxGeometry>
        </mxCell>
        <mxCell id="XgasXNfYy0nCk-x9ioHG-18" value="0..*" style="edgeLabel;resizable=0;html=1;;align=right;verticalAlign=bottom;" connectable="0" vertex="1" parent="XgasXNfYy0nCk-x9ioHG-15">
          <mxGeometry x="1" relative="1" as="geometry">
            <mxPoint x="35" y="25" as="offset" />
          </mxGeometry>
        </mxCell>
        <mxCell id="XgasXNfYy0nCk-x9ioHG-20" value="Interagerar" style="text;html=1;align=center;verticalAlign=middle;resizable=0;points=[];autosize=1;strokeColor=none;fillColor=none;" vertex="1" parent="1">
          <mxGeometry x="610" y="348" width="80" height="30" as="geometry" />
        </mxCell>
      </root>
    </mxGraphModel>
  </diagram>
</mxfile>
